0
SECTION
2
HEADER
9
$INSUNITS
70
4
9
$ACADVER
1
AC1014
9
$HANDSEED
5
FFFF
0
ENDSEC
0
SECTION
2
TABLES
0
TABLE
2
VPORT
5
8
100
AcDbSymbolTable
0
ENDTAB
0
TABLE
2
LTYPE
5
5
100
AcDbSymbolTable
0
LTYPE
5
14
100
AcDbSymbolTableRecord
100
AcDbLinetypeTableRecord
2
BYBLOCK
70
0
0
LTYPE
5
15
100
AcDbSymbolTableRecord
100
AcDbLinetypeTableRecord
2
BYLAYER
70
0
0
ENDTAB
0
TABLE
2
LAYER
5
2
100
AcDbSymbolTable
70
2
0
LAYER
5
50
100
AcDbSymbolTableRecord
100
AcDbLayerTableRecord
2
0
70
0
6
CONTINUOUS
0
ENDTAB
0
TABLE
2
STYLE
5
3
100
AcDbSymbolTable
70
1
0
STYLE
5
11
100
AcDbSymbolTableRecord
100
AcDbTextStyleTableRecord
2
STANDARD
70
0
0
ENDTAB
0
TABLE
2
VIEW
5
6
100
AcDbSymbolTable
70
0
0
ENDTAB
0
TABLE
2
UCS
5
7
100
AcDbSymbolTable
70
0
0
ENDTAB
0
TABLE
2
APPID
5
9
100
AcDbSymbolTable
70
2
0
APPID
5
12
100
AcDbSymbolTableRecord
100
AcDbRegAppTableRecord
2
ACAD
70
0
0
ENDTAB
0
TABLE
2
DIMSTYLE
5
A
100
AcDbSymbolTable
70
1
0
ENDTAB
0
TABLE
2
BLOCK_RECORD
5
1
100
AcDbSymbolTable
70
1
0
BLOCK_RECORD
5
1F
100
AcDbSymbolTableRecord
100
AcDbBlockTableRecord
2
*MODEL_SPACE
0
BLOCK_RECORD
5
1B
100
AcDbSymbolTableRecord
100
AcDbBlockTableRecord
2
*PAPER_SPACE
0
ENDTAB
0
ENDSEC
0
SECTION
2
BLOCKS
0
BLOCK
5
20
100
AcDbEntity
100
AcDbBlockBegin
2
*MODEL_SPACE
0
ENDBLK
5
21
100
AcDbEntity
100
AcDbBlockEnd
0
BLOCK
5
1C
100
AcDbEntity
100
AcDbBlockBegin
2
*PAPER_SPACE
0
ENDBLK
5
1D
100
AcDbEntity
100
AcDbBlockEnd
0
ENDSEC
0
SECTION
2
ENTITIES
0
CIRCLE
5
100
100
AcDbEntity
8
0
100
AcDbCircle
10
101.20000000000012
20
-18.100000000000076
30
0
40
2.5999999999999979
210
0
220
0
230
1
0
CIRCLE
5
101
100
AcDbEntity
8
0
100
AcDbCircle
10
-3.9149999999999063
20
42.500000000000057
30
0
40
2.6000000000000001
210
0
220
0
230
1
0
CIRCLE
5
102
100
AcDbEntity
8
0
100
AcDbCircle
10
-3.9149999999997656
20
115.50000000000003
30
0
40
2.6000000000000014
210
0
220
0
230
1
0
CIRCLE
5
103
100
AcDbEntity
8
0
100
AcDbCircle
10
66.200000000000102
20
-18.100000000000069
30
0
40
2.5999999999999979
210
0
220
0
230
1
0
CIRCLE
5
104
100
AcDbEntity
8
0
100
AcDbCircle
10
101.2000000000001
20
26.899999999999935
30
0
40
2.5999999999999979
210
0
220
0
230
1
0
CIRCLE
5
105
100
AcDbEntity
8
0
100
AcDbCircle
10
53.915000000000084
20
42.499999999999929
30
0
40
2.5999999999999979
210
0
220
0
230
1
0
CIRCLE
5
106
100
AcDbEntity
8
0
100
AcDbCircle
10
53.915000000000191
20
115.49999999999994
30
0
40
2.5999999999999979
210
0
220
0
230
1
0
CIRCLE
5
107
100
AcDbEntity
8
0
100
AcDbCircle
10
66.200000000000088
20
26.899999999999928
30
0
40
2.5999999999999979
210
0
220
0
230
1
0
CIRCLE
5
108
100
AcDbEntity
8
0
100
AcDbCircle
10
-51.19999999999996
20
-26.900000000000031
30
0
40
2.5999999999999979
210
0
220
0
230
1
0
CIRCLE
5
109
100
AcDbEntity
8
0
100
AcDbCircle
10
-3.9149999999999041
20
-115.50000000000003
30
0
40
2.6000000000000014
210
0
220
0
230
1
0
CIRCLE
5
110
100
AcDbEntity
8
0
100
AcDbCircle
10
53.91500000000002
20
-42.5
30
0
40
2.5999999999999979
210
0
220
0
230
1
0
CIRCLE
5
111
100
AcDbEntity
8
0
100
AcDbCircle
10
-51.199999999999939
20
18.099999999999966
30
0
40
2.5999999999999979
210
0
220
0
230
1
0
CIRCLE
5
112
100
AcDbEntity
8
0
100
AcDbCircle
10
-16.199999999999957
20
-26.900000000000034
30
0
40
2.6000000000000001
210
0
220
0
230
1
0
CIRCLE
5
113
100
AcDbEntity
8
0
100
AcDbCircle
10
53.91500000000002
20
-115.5
30
0
40
2.5999999999999979
210
0
220
0
230
1
0
CIRCLE
5
114
100
AcDbEntity
8
0
100
AcDbCircle
10
-3.9149999999999565
20
-42.500000000000036
30
0
40
2.6000000000000001
210
0
220
0
230
1
0
CIRCLE
5
115
100
AcDbEntity
8
0
100
AcDbCircle
10
-16.19999999999995
20
18.099999999999966
30
0
40
2.6000000000000001
210
0
220
0
230
1
0
LWPOLYLINE
5
116
100
AcDbEntity
8
0
100
AcDbPolyline
90
4
70
1
43
0.0
10
130.00000000000006
20
-104.00000000000003
10
130.00000000000003
20
-54.000000000000014
10
-79.999999999999972
20
-53.999999999999993
10
-79.999999999999943
20
-104.00000000000006
0
LWPOLYLINE
5
117
100
AcDbEntity
8
0
100
AcDbPolyline
90
4
70
1
43
0.0
10
-79.999999999999886
20
54.000000000000085
10
130.00000000000011
20
53.999999999999872
10
130.00000000000017
20
103.99999999999989
10
-79.999999999999844
20
104.00000000000013
0
LWPOLYLINE
5
118
100
AcDbEntity
8
0
100
AcDbPolyline
90
4
70
1
43
0.0
10
35.096950006047003
20
-180.04075189895303
10
32.49222734104314
20
-165.26863560376992
10
25.992496171162816
20
-166.41471357637303
10
28.597218836166682
20
-181.1868298715562
0
LWPOLYLINE
5
119
100
AcDbEntity
8
0
100
AcDbPolyline
90
4
70
1
43
0.0
10
-183.40004973845384
20
-3.2999999999998364
10
-168.40004973845382
20
-3.2999999999999252
10
-168.40004973845521
20
3.3000000000000718
10
-183.40004973845524
20
3.3000000000001606
0
LWPOLYLINE
5
120
100
AcDbEntity
8
0
100
AcDbPolyline
90
4
70
1
43
0.0
10
183.40004973845382
20
3.2999999999997742
10
168.40004973845379
20
3.2999999999998675
10
168.40004973845521
20
-3.3000000000001295
10
183.40004973845524
20
-3.3000000000002228
0
LWPOLYLINE
5
121
100
AcDbEntity
8
0
100
AcDbPolyline
90
4
70
1
43
0.0
10
-35.096950006047017
20
180.04075189895303
10
-32.492227341043147
20
165.26863560376992
10
-25.992496171162824
20
166.41471357637303
10
-28.597218836166689
20
181.1868298715562
0
LWPOLYLINE
5
122
100
AcDbEntity
8
0
100
AcDbPolyline
90
36
70
1
43
0.0
10
33.583557560784307
20
196.72325551921261
10
35.725094828565531
20
196.3456447187101
10
98.841537267781206
20
173.37313837805942
10
100.72477353534403
20
172.28585141203439
10
152.17776883455417
20
129.11166203350078
10
153.57555801442334
20
127.44584175670235
10
187.15911557520755
20
69.27741376251015
10
187.9028636631196
20
67.233982685209241
10
199.56631080312488
20
1.0872869660249762
10
199.56631080312488
20
-1.0872869660251894
10
187.90286366311958
20
-67.233982685209355
10
187.15911557520752
20
-69.277413762510236
10
153.57555801442317
20
-127.44584175670258
10
152.177768834554
20
-129.11166203350095
10
100.72477353534384
20
-172.28585141203456
10
98.841537267780978
20
-173.37313837805962
10
35.725094828565432
20
-196.34564471871005
10
33.583557560784207
20
-196.72325551921259
10
-33.583557560784328
20
-196.72325551921259
10
-35.725094828565545
20
-196.34564471871005
10
-98.841537267781064
20
-173.37313837805948
10
-100.72477353534393
20
-172.28585141203442
10
-152.17776883455417
20
-129.11166203350075
10
-153.57555801442334
20
-127.44584175670229
10
-187.15911557520758
20
-69.277413762510093
10
-187.90286366311963
20
-67.23398268520917
10
-199.56631080312491
20
-1.0872869660250473
10
-199.56631080312488
20
1.0872869660251183
10
-187.90286366311958
20
67.233982685209355
10
-187.15911557520752
20
69.277413762510236
10
-153.57555801442319
20
127.44584175670249
10
-152.17776883455403
20
129.11166203350089
10
-100.72477353534381
20
172.28585141203453
10
-98.841537267780978
20
173.37313837805959
10
-35.725094828565432
20
196.3456447187101
10
-33.5835575607842
20
196.72325551921261
0
LWPOLYLINE
5
123
100
AcDbEntity
8
0
100
AcDbPolyline
90
36
70
1
43
0.0
10
-35.751075597746336
20
-196.44260626931248
10
-98.88396052726543
20
-173.4641153516142
10
-100.78235027585954
20
-172.36807951923657
10
-152.24874961597581
20
-129.18264281492239
10
-153.65778612162552
20
-127.50341849721792
10
-187.2500925487623
20
-69.319837021994488
10
-187.99982521372209
20
-67.259963454389975
10
-199.66631080312493
20
-1.0960358323775807
10
-199.66631080312487
20
1.0960358323776642
10
-187.999825213722
20
67.259963454390132
10
-187.25009254876227
20
69.319837021994545
10
-153.65778612162535
20
127.50341849721815
10
-152.24874961597573
20
129.18264281492247
10
-100.78235027585933
20
172.36807951923677
10
-98.883960527265373
20
173.46411535161428
10
-35.751075597746215
20
196.44260626931253
10
-33.592306427136748
20
196.82325551921264
10
33.59230642713684
20
196.82325551921264
10
35.751075597746308
20
196.44260626931253
10
98.883960527265614
20
173.46411535161417
10
100.78235027585961
20
172.36807951923657
10
152.24874961597581
20
129.18264281492242
10
153.65778612162555
20
127.50341849721795
10
187.25009254876227
20
69.319837021994545
10
187.99982521372203
20
67.259963454390032
10
199.66631080312487
20
1.0960358323775106
10
199.66631080312487
20
-1.0960358323777175
10
187.999825213722
20
-67.259963454390132
10
187.25009254876227
20
-69.319837021994573
10
153.65778612162532
20
-127.50341849721823
10
152.2487496159757
20
-129.18264281492256
10
100.7823502758594
20
-172.3680795192368
10
98.883960527265344
20
-173.46411535161437
10
35.751075597746215
20
-196.44260626931248
10
33.592306427136755
20
-196.82325551921258
10
-33.592306427136869
20
-196.82325551921258
0
LWPOLYLINE
5
124
100
AcDbEntity
8
0
100
AcDbPolyline
90
4
70
1
43
0.0
10
-168.50004973845517
20
3.2000000000000721
10
-183.30004973845519
20
3.20000000000016
10
-183.30004973845388
20
-3.1999999999998368
10
-168.50004973845387
20
-3.1999999999999247
0
LWPOLYLINE
5
125
100
AcDbEntity
8
0
100
AcDbPolyline
90
4
70
1
43
0.0
10
183.30004973845382
20
3.1999999999997746
10
168.50004973845384
20
3.199999999999867
10
168.50004973845517
20
-3.2000000000001299
10
183.30004973845519
20
-3.2000000000002222
0
LWPOLYLINE
5
126
100
AcDbEntity
8
0
100
AcDbPolyline
90
4
70
1
43
0.0
10
34.9811044129791
20
-179.95963594141853
10
32.411111383508612
20
-165.38448119683784
10
26.108341764230723
20
-166.49582953390757
10
28.678334793701204
20
-181.07098427848825
0
LWPOLYLINE
5
127
100
AcDbEntity
8
0
100
AcDbPolyline
90
4
70
1
43
0.0
10
-26.10834176423073
20
166.49582953390757
10
-28.678334793701215
20
181.07098427848825
10
-34.981104412979107
20
179.95963594141853
10
-32.411111383508626
20
165.38448119683784
0
ENDSEC
0
SECTION
2
OBJECTS
0
DICTIONARY
5
C
100
AcDbDictionary
3
ACAD_GROUP
350
D
3
ACAD_MLINESTYLE
350
17
0
DICTIONARY
5
D
100
AcDbDictionary
0
DICTIONARY
5
1A
330
C
100
AcDbDictionary
0
DICTIONARY
5
17
100
AcDbDictionary
0
ENDSEC
0
EOF
