0
SECTION
2
HEADER
9
$INSUNITS
70
4
9
$ACADVER
1
AC1014
9
$HANDSEED
5
FFFF
0
ENDSEC
0
SECTION
2
TABLES
0
TABLE
2
VPORT
5
8
100
AcDbSymbolTable
0
ENDTAB
0
TABLE
2
LTYPE
5
5
100
AcDbSymbolTable
0
LTYPE
5
14
100
AcDbSymbolTableRecord
100
AcDbLinetypeTableRecord
2
BYBLOCK
70
0
0
LTYPE
5
15
100
AcDbSymbolTableRecord
100
AcDbLinetypeTableRecord
2
BYLAYER
70
0
0
ENDTAB
0
TABLE
2
LAYER
5
2
100
AcDbSymbolTable
70
2
0
LAYER
5
50
100
AcDbSymbolTableRecord
100
AcDbLayerTableRecord
2
0
70
0
6
CONTINUOUS
0
ENDTAB
0
TABLE
2
STYLE
5
3
100
AcDbSymbolTable
70
1
0
STYLE
5
11
100
AcDbSymbolTableRecord
100
AcDbTextStyleTableRecord
2
STANDARD
70
0
0
ENDTAB
0
TABLE
2
VIEW
5
6
100
AcDbSymbolTable
70
0
0
ENDTAB
0
TABLE
2
UCS
5
7
100
AcDbSymbolTable
70
0
0
ENDTAB
0
TABLE
2
APPID
5
9
100
AcDbSymbolTable
70
2
0
APPID
5
12
100
AcDbSymbolTableRecord
100
AcDbRegAppTableRecord
2
ACAD
70
0
0
ENDTAB
0
TABLE
2
DIMSTYLE
5
A
100
AcDbSymbolTable
70
1
0
ENDTAB
0
TABLE
2
BLOCK_RECORD
5
1
100
AcDbSymbolTable
70
1
0
BLOCK_RECORD
5
1F
100
AcDbSymbolTableRecord
100
AcDbBlockTableRecord
2
*MODEL_SPACE
0
BLOCK_RECORD
5
1B
100
AcDbSymbolTableRecord
100
AcDbBlockTableRecord
2
*PAPER_SPACE
0
ENDTAB
0
ENDSEC
0
SECTION
2
BLOCKS
0
BLOCK
5
20
100
AcDbEntity
100
AcDbBlockBegin
2
*MODEL_SPACE
0
ENDBLK
5
21
100
AcDbEntity
100
AcDbBlockEnd
0
BLOCK
5
1C
100
AcDbEntity
100
AcDbBlockBegin
2
*PAPER_SPACE
0
ENDBLK
5
1D
100
AcDbEntity
100
AcDbBlockEnd
0
ENDSEC
0
SECTION
2
ENTITIES
0
LWPOLYLINE
5
100
100
AcDbEntity
8
0
100
AcDbPolyline
90
4
70
1
43
0.0
10
-28.597210199174732
20
-181.18678088873986
10
-25.99248753417157
20
-166.41466459356076
10
-32.49221870405146
20
-165.26858662095498
10
-35.096941369055315
20
-180.04070291613814
0
LWPOLYLINE
5
101
100
AcDbEntity
8
0
100
AcDbPolyline
90
4
70
1
43
0.0
10
28.597210199174512
20
181.18678088873992
10
25.992487534170508
20
166.41466459355681
10
32.492218704051083
20
165.26858662095506
10
35.096941369055088
20
180.04070291613814
0
LWPOLYLINE
5
102
100
AcDbEntity
8
0
100
AcDbPolyline
90
4
70
1
43
0.0
10
-159.37290381332161
20
54.495206487449259
10
-157.11557086737224
20
60.697177784636295
10
-171.21096017916091
20
65.827479934521236
10
-173.46829312511028
20
59.625508637334228
0
LWPOLYLINE
5
103
100
AcDbEntity
8
0
100
AcDbPolyline
90
4
70
1
43
0.0
10
171.21096017916102
20
-65.827479934520966
10
173.46829312511048
20
-59.625508637333979
10
159.37290381332184
20
-54.495206487448868
10
157.11557086737625
20
-60.697177784637297
0
CIRCLE
5
104
100
AcDbEntity
8
0
100
AcDbCircle
10
0
20
0
30
0
40
160.46181943256104
210
0
220
-0
230
1
0
LWPOLYLINE
5
105
100
AcDbEntity
8
0
100
AcDbPolyline
90
4
70
1
43
0.0
10
115.07764391466709
20
142.27808419121382
10
105.43582976936904
20
130.78741754442919
10
110.49172309395429
20
126.54501932049804
10
120.13353723925235
20
138.03568596728266
0
LWPOLYLINE
5
106
100
AcDbEntity
8
0
100
AcDbPolyline
90
4
70
1
43
0.0
10
179.60917929610574
20
35.020852112025857
10
164.83706300092265
20
32.416129447021916
10
165.9831409735244
20
25.91639827714134
10
180.75525726870748
20
28.521120942145281
0
LWPOLYLINE
5
107
100
AcDbEntity
8
0
100
AcDbPolyline
90
4
70
1
43
0.0
10
160.09958355121688
20
-88.623025883795975
10
147.10920249445033
20
-81.123025883795975
10
143.80920249445035
20
-86.838793548773268
10
156.79958355121687
20
-94.338793548773268
0
LWPOLYLINE
5
108
100
AcDbEntity
8
0
100
AcDbPolyline
90
4
70
1
43
0.0
10
65.677613354038783
20
-170.7992051333683
10
60.547311204153772
20
-156.70381582157972
10
54.345339906966785
20
-158.96114876752915
10
59.475642056851797
20
-173.05653807931773
0
LWPOLYLINE
5
109
100
AcDbEntity
8
0
100
AcDbPolyline
90
4
70
1
43
0.0
10
-59.475642056860536
20
-173.05653807931458
10
-54.345339906975518
20
-158.96114876752597
10
-60.547311204162504
20
-156.70381582157657
10
-65.677613354047523
20
-170.79920513336515
0
LWPOLYLINE
5
110
100
AcDbEntity
8
0
100
AcDbPolyline
90
4
70
1
43
0.0
10
-156.79958355122159
20
-94.338793548765125
10
-143.80920249445504
20
-86.838793548765153
10
-147.10920249445505
20
-81.123025883787847
10
-160.0995835512216
20
-88.623025883787832
0
LWPOLYLINE
5
111
100
AcDbEntity
8
0
100
AcDbPolyline
90
4
70
1
43
0.0
10
-180.75525726870586
20
28.521120942154468
10
-165.98314097352278
20
25.916398277150524
10
-164.83706300092106
20
32.416129447031096
10
-179.60917929610414
20
35.020852112035044
0
LWPOLYLINE
5
112
100
AcDbEntity
8
0
100
AcDbPolyline
90
4
70
1
43
0.0
10
-120.13353723924521
20
138.03568596728866
10
-110.49172309394714
20
126.54501932050401
10
-105.4358297693619
20
130.78741754443516
10
-115.07764391465996
20
142.27808419121982
0
LWPOLYLINE
5
113
100
AcDbEntity
8
0
100
AcDbPolyline
90
18
70
1
43
0.0
10
-33.58355756078435
20
190.46181943256101
10
33.583557560784314
20
190.46181943256113
10
96.699999999999946
20
167.4893130919105
10
148.15299529921032
20
124.31512371337672
10
181.73655285999467
20
66.146695719184351
10
193.40000000000001
20
2.6645352591003757e-14
10
181.73655285999467
20
-66.146695719184308
10
148.15299529921037
20
-124.31512371337668
10
96.700000000000088
20
-167.48931309191039
10
33.583557560784321
20
-190.46181943256101
10
-33.583557560784271
20
-190.46181943256107
10
-96.699999999999989
20
-167.4893130919105
10
-148.15299529921032
20
-124.31512371337675
10
-181.73655285999467
20
-66.14669571918445
10
-193.40000000000003
20
-2.042810365310288e-13
10
-181.73655285999467
20
66.146695719184322
10
-148.15299529921046
20
124.31512371337668
10
-96.700000000000017
20
167.48931309191039
0
LWPOLYLINE
5
114
100
AcDbEntity
8
0
100
AcDbPolyline
90
4
70
1
43
0.0
10
3.3000000000046232
20
167.96181943256107
10
3.3000000000046232
20
182.96181943256104
10
-3.2999999999953773
20
182.96181943256104
10
-3.2999999999953773
20
167.96181943256107
0
LWPOLYLINE
5
115
100
AcDbEntity
8
0
100
AcDbPolyline
90
4
70
1
43
0.0
10
-65.677613354038797
20
170.7992051333683
10
-60.547311204153786
20
156.70381582157972
10
-54.345339906966792
20
158.96114876752915
10
-59.475642056851811
20
173.05653807931773
0
LWPOLYLINE
5
116
100
AcDbEntity
8
0
100
AcDbPolyline
90
4
70
1
43
0.0
10
-160.09958355121694
20
88.623025883795904
10
-147.10920249445036
20
81.123025883795918
10
-143.80920249445037
20
86.838793548773211
10
-156.79958355121693
20
94.338793548773197
0
LWPOLYLINE
5
117
100
AcDbEntity
8
0
100
AcDbPolyline
90
4
70
1
43
0.0
10
-179.60917929610574
20
-35.020852112025921
10
-164.83706300092265
20
-32.416129447021973
10
-165.9831409735244
20
-25.916398277141397
10
-180.75525726870748
20
-28.521120942145348
0
LWPOLYLINE
5
118
100
AcDbEntity
8
0
100
AcDbPolyline
90
4
70
1
43
0.0
10
-115.07764391466708
20
-142.27808419121382
10
-105.43582976936902
20
-130.78741754442919
10
-110.49172309395428
20
-126.54501932049804
10
-120.13353723925233
20
-138.03568596728266
0
LWPOLYLINE
5
119
100
AcDbEntity
8
0
100
AcDbPolyline
90
4
70
1
43
0.0
10
3.2999999999953551
20
-182.96181943256104
10
3.2999999999953564
20
-167.96181943256107
10
-3.3000000000046437
20
-167.96181943256107
10
-3.3000000000046454
20
-182.96181943256104
0
LWPOLYLINE
5
120
100
AcDbEntity
8
0
100
AcDbPolyline
90
4
70
1
43
0.0
10
120.13353723924521
20
-138.03568596728866
10
110.49172309394714
20
-126.54501932050401
10
105.4358297693619
20
-130.78741754443516
10
115.07764391465996
20
-142.27808419121982
0
LWPOLYLINE
5
121
100
AcDbEntity
8
0
100
AcDbPolyline
90
4
70
1
43
0.0
10
180.75525726870586
20
-28.521120942154457
10
165.98314097352278
20
-25.916398277150506
10
164.83706300092106
20
-32.416129447031082
10
179.60917929610414
20
-35.02085211203503
0
LWPOLYLINE
5
122
100
AcDbEntity
8
0
100
AcDbPolyline
90
4
70
1
43
0.0
10
156.79958355122156
20
94.338793548765182
10
143.80920249445501
20
86.83879354876521
10
147.10920249445502
20
81.123025883787903
10
160.09958355122154
20
88.623025883787889
0
LWPOLYLINE
5
123
100
AcDbEntity
8
0
100
AcDbPolyline
90
4
70
1
43
0.0
10
59.475642056860622
20
173.05653807931452
10
54.345339906975589
20
158.96114876752594
10
60.547311204162575
20
156.70381582157654
10
65.677613354047608
20
170.79920513336509
0
LWPOLYLINE
5
124
100
AcDbEntity
8
0
100
AcDbPolyline
90
18
70
1
43
0.0
10
-181.83197174940855
20
-66.181425354717845
10
-193.50154266118861
20
-2.042810365310288e-13
10
-181.83197174940855
20
66.181425354717689
10
-148.23078149055351
20
124.38039407784325
10
-96.750771330594233
20
167.5772516160676
10
-33.601190258855162
20
190.56181943256104
10
33.601190258855127
20
190.56181943256115
10
96.750771330594233
20
167.57725161606768
10
148.23078149055337
20
124.38039407784331
10
181.83197174940852
20
66.181425354717774
10
193.50154266118858
20
3.5527136788005009e-14
10
181.83197174940855
20
-66.181425354717675
10
148.23078149055343
20
-124.38039407784325
10
96.750771330594304
20
-167.5772516160676
10
33.601190258855127
20
-190.56181943256104
10
-33.601190258855091
20
-190.56181943256109
10
-96.750771330594262
20
-167.57725161606768
10
-148.23078149055337
20
-124.38039407784333
0
LWPOLYLINE
5
125
100
AcDbEntity
8
0
100
AcDbPolyline
90
4
70
1
43
0.0
10
-156.76298101083847
20
94.202191008394749
10
-159.96298101083846
20
88.659628424174329
10
-147.14580503482881
20
81.259628424174366
10
-143.94580503482882
20
86.802191008394772
0
LWPOLYLINE
5
126
100
AcDbEntity
8
0
100
AcDbPolyline
90
4
70
1
43
0.0
10
-119.99265403396466
20
138.02336028394541
10
-110.47939741060391
20
126.68590252578456
10
-105.57671297464245
20
130.79974322777841
10
-115.08996959800319
20
142.13720098593927
0
LWPOLYLINE
5
127
100
AcDbEntity
8
0
100
AcDbPolyline
90
4
70
1
43
0.0
10
-65.549442077627646
20
170.73943788562229
10
-60.487543956407762
20
156.83198709799089
10
-54.473511183377958
20
159.02091601527516
10
-59.535409304597842
20
172.92836680290657
0
LWPOLYLINE
5
128
100
AcDbEntity
8
0
100
AcDbPolyline
90
4
70
1
43
0.0
10
-3.1999999999953772
20
182.86181943256105
10
-3.1999999999953772
20
168.06181943256109
10
3.2000000000046231
20
168.06181943256109
10
3.2000000000046231
20
182.86181943256105
0
LWPOLYLINE
5
129
100
AcDbEntity
8
0
100
AcDbPolyline
90
4
70
1
43
0.0
10
28.678326156709041
20
181.07093529567203
10
26.108333127238424
20
166.49578055109134
10
32.411102746516555
20
165.38443221402298
10
34.981095775987171
20
179.95958695860361
0
LWPOLYLINE
5
130
100
AcDbEntity
8
0
100
AcDbPolyline
90
4
70
1
43
0.0
10
59.535409304606631
20
172.92836680290335
10
54.473511183386748
20
159.02091601527198
10
60.487543956416552
20
156.83198709798771
10
65.549442077636428
20
170.73943788561908
0
LWPOLYLINE
5
131
100
AcDbEntity
8
0
100
AcDbPolyline
90
4
70
1
43
0.0
10
115.08996959801033
20
142.13720098593328
10
105.57671297464958
20
130.79974322777244
10
110.47939741061106
20
126.68590252577859
10
119.9926540339718
20
138.02336028393941
0
LWPOLYLINE
5
132
100
AcDbEntity
8
0
100
AcDbPolyline
90
4
70
1
43
0.0
10
-173.34012184869908
20
59.685275885080245
10
-159.43267106106765
20
54.623377763860425
10
-157.24374214378341
20
60.637410536890272
10
-171.1511929314149
20
65.69930865811007
0
LWPOLYLINE
5
133
100
AcDbEntity
8
0
100
AcDbPolyline
90
4
70
1
43
0.0
10
-164.95290859398895
20
32.335013489496575
10
-179.52806333856958
20
34.905006518967127
10
-180.63941167563797
20
28.602236899688997
10
-166.06425693105734
20
26.032243870218434
0
LWPOLYLINE
5
134
100
AcDbEntity
8
0
100
AcDbPolyline
90
4
70
1
43
0.0
10
-166.06425693105894
20
-26.032243870209314
10
-180.63941167563956
20
-28.602236899679877
10
-179.5280633385712
20
-34.905006518958011
10
-164.95290859399057
20
-32.335013489487444
0
LWPOLYLINE
5
135
100
AcDbEntity
8
0
100
AcDbPolyline
90
4
70
1
43
0.0
10
-147.1458050348335
20
-81.25962842416628
10
-159.96298101084312
20
-88.659628424166272
10
-156.76298101084313
20
-94.202191008386677
10
-143.94580503483348
20
-86.8021910083867
0
LWPOLYLINE
5
136
100
AcDbEntity
8
0
100
AcDbPolyline
90
4
70
1
43
0.0
10
-110.47939741061103
20
-126.68590252577859
10
-119.99265403397177
20
-138.02336028393944
10
-115.08996959801031
20
-142.13720098593328
10
-105.57671297464957
20
-130.79974322777244
0
LWPOLYLINE
5
137
100
AcDbEntity
8
0
100
AcDbPolyline
90
4
70
1
43
0.0
10
-60.487543956416481
20
-156.83198709798774
10
-65.549442077636371
20
-170.73943788561911
10
-59.53540930460656
20
-172.92836680290338
10
-54.473511183386677
20
-159.02091601527201
0
LWPOLYLINE
5
138
100
AcDbEntity
8
0
100
AcDbPolyline
90
4
70
1
43
0.0
10
-32.411102746516946
20
-165.38443221402298
10
-34.981095775987406
20
-179.95958695860361
10
-28.678326156709261
20
-181.07093529567194
10
-26.108333127239469
20
-166.49578055109521
0
LWPOLYLINE
5
139
100
AcDbEntity
8
0
100
AcDbPolyline
90
4
70
1
43
0.0
10
-3.2000000000046436
20
-168.06181943256109
10
-3.2000000000046454
20
-182.86181943256105
10
3.199999999995355
20
-182.86181943256105
10
3.1999999999953568
20
-168.06181943256109
0
LWPOLYLINE
5
140
100
AcDbEntity
8
0
100
AcDbPolyline
90
4
70
1
43
0.0
10
54.473511183377958
20
-159.02091601527519
10
59.53540930459782
20
-172.92836680290657
10
65.549442077627631
20
-170.73943788562229
10
60.487543956407762
20
-156.83198709799089
0
LWPOLYLINE
5
141
100
AcDbEntity
8
0
100
AcDbPolyline
90
4
70
1
43
0.0
10
105.57671297464245
20
-130.79974322777841
10
115.08996959800319
20
-142.13720098593927
10
119.99265403396466
20
-138.02336028394541
10
110.47939741060391
20
-126.68590252578456
0
LWPOLYLINE
5
142
100
AcDbEntity
8
0
100
AcDbPolyline
90
4
70
1
43
0.0
10
143.94580503482877
20
-86.802191008394814
10
156.76298101083842
20
-94.20219100839482
10
159.96298101083843
20
-88.6596284241744
10
147.14580503482878
20
-81.259628424174423
0
LWPOLYLINE
5
143
100
AcDbEntity
8
0
100
AcDbPolyline
90
4
70
1
43
0.0
10
173.34012184869931
20
-59.685275885079996
10
159.43267106106794
20
-54.623377763860049
10
157.24374214378736
20
-60.637410536891245
10
171.15119293141501
20
-65.6993086581098
0
LWPOLYLINE
5
144
100
AcDbEntity
8
0
100
AcDbPolyline
90
4
70
1
43
0.0
10
164.95290859398898
20
-32.335013489496561
10
179.52806333856958
20
-34.905006518967113
10
180.63941167563797
20
-28.602236899688982
10
166.06425693105734
20
-26.032243870218423
0
LWPOLYLINE
5
145
100
AcDbEntity
8
0
100
AcDbPolyline
90
4
70
1
43
0.0
10
166.06425693105891
20
26.03224387020925
10
180.63941167563956
20
28.602236899679809
10
179.5280633385712
20
34.90500651895794
10
164.95290859399057
20
32.335013489487395
0
LWPOLYLINE
5
146
100
AcDbEntity
8
0
100
AcDbPolyline
90
4
70
1
43
0.0
10
147.14580503483347
20
81.259628424166337
10
159.96298101084309
20
88.659628424166328
10
156.76298101084313
20
94.202191008386734
10
143.94580503483348
20
86.802191008386757
0
ENDSEC
0
SECTION
2
OBJECTS
0
DICTIONARY
5
C
100
AcDbDictionary
3
ACAD_GROUP
350
D
3
ACAD_MLINESTYLE
350
17
0
DICTIONARY
5
D
100
AcDbDictionary
0
DICTIONARY
5
1A
330
C
100
AcDbDictionary
0
DICTIONARY
5
17
100
AcDbDictionary
0
ENDSEC
0
EOF
