0
SECTION
2
HEADER
9
$INSUNITS
70
4
9
$ACADVER
1
AC1014
9
$HANDSEED
5
FFFF
0
ENDSEC
0
SECTION
2
TABLES
0
TABLE
2
VPORT
5
8
100
AcDbSymbolTable
0
ENDTAB
0
TABLE
2
LTYPE
5
5
100
AcDbSymbolTable
0
LTYPE
5
14
100
AcDbSymbolTableRecord
100
AcDbLinetypeTableRecord
2
BYBLOCK
70
0
0
LTYPE
5
15
100
AcDbSymbolTableRecord
100
AcDbLinetypeTableRecord
2
BYLAYER
70
0
0
ENDTAB
0
TABLE
2
LAYER
5
2
100
AcDbSymbolTable
70
2
0
LAYER
5
50
100
AcDbSymbolTableRecord
100
AcDbLayerTableRecord
2
0
70
0
6
CONTINUOUS
0
ENDTAB
0
TABLE
2
STYLE
5
3
100
AcDbSymbolTable
70
1
0
STYLE
5
11
100
AcDbSymbolTableRecord
100
AcDbTextStyleTableRecord
2
STANDARD
70
0
0
ENDTAB
0
TABLE
2
VIEW
5
6
100
AcDbSymbolTable
70
0
0
ENDTAB
0
TABLE
2
UCS
5
7
100
AcDbSymbolTable
70
0
0
ENDTAB
0
TABLE
2
APPID
5
9
100
AcDbSymbolTable
70
2
0
APPID
5
12
100
AcDbSymbolTableRecord
100
AcDbRegAppTableRecord
2
ACAD
70
0
0
ENDTAB
0
TABLE
2
DIMSTYLE
5
A
100
AcDbSymbolTable
70
1
0
ENDTAB
0
TABLE
2
BLOCK_RECORD
5
1
100
AcDbSymbolTable
70
1
0
BLOCK_RECORD
5
1F
100
AcDbSymbolTableRecord
100
AcDbBlockTableRecord
2
*MODEL_SPACE
0
BLOCK_RECORD
5
1B
100
AcDbSymbolTableRecord
100
AcDbBlockTableRecord
2
*PAPER_SPACE
0
ENDTAB
0
ENDSEC
0
SECTION
2
BLOCKS
0
BLOCK
5
20
100
AcDbEntity
100
AcDbBlockBegin
2
*MODEL_SPACE
0
ENDBLK
5
21
100
AcDbEntity
100
AcDbBlockEnd
0
BLOCK
5
1C
100
AcDbEntity
100
AcDbBlockBegin
2
*PAPER_SPACE
0
ENDBLK
5
1D
100
AcDbEntity
100
AcDbBlockEnd
0
ENDSEC
0
SECTION
2
ENTITIES
0
CIRCLE
5
100
100
AcDbEntity
8
0
100
AcDbCircle
10
161.77221517131571
20
0
30
0
40
16.002000000000006
210
0
220
0
230
1
0
LINE
5
101
100
AcDbEntity
8
0
100
AcDbLine
10
176.4500443703507
20
64.222563985758384
30
0
11
166.90815542896399
21
60.749600432419832
31
0
0
SPLINE
5
102
100
AcDbEntity
8
0
100
AcDbSpline
70
0
71
3
72
14
73
10
74
0
42
0.000000001
43
0.0000000001
44
0.0000000001
40
0
40
0
40
0
40
0
40
1.450078574806511
40
1.450078574806511
40
2.292187316912484
40
2.292187316912484
40
2.6757085072009557
40
2.6757085072009557
40
3.0703832107529294
40
3.0703832107529294
40
3.0703832107529294
40
3.0703832107529294
10
166.90815542896399
20
60.749600432419832
30
0
10
166.90815542896399
20
55.91600518306479
30
0
10
166.21660724718998
20
50.091679931315696
30
0
10
162.09287839238925
20
38.886124709525859
30
0
10
159.9199919089979
20
34.313909968884261
30
0
10
156.33999968805259
20
29.066033677979068
30
0
10
155.10042042969633
20
27.538207646590372
30
0
10
152.17029574885291
20
24.733097552353158
30
0
10
150.55390446142982
20
23.546643542037323
30
0
10
148.78055790490191
20
22.52378399541719
30
0
0
ARC
5
103
100
AcDbEntity
8
0
100
AcDbCircle
10
161.77221517131571
20
0
30
0
40
26.002000000003342
210
0
220
0
230
1
100
AcDbArc
50
119.97623120208266
51
240.02376879791731
0
SPLINE
5
104
100
AcDbEntity
8
0
100
AcDbSpline
70
0
71
3
72
12
73
8
74
0
42
0.000000001
43
0.0000000001
44
0.0000000001
40
0
40
0
40
0
40
0
40
1.1163505351948868
40
1.1163505351948868
40
2.7660712496683861
40
2.7660712496683861
40
7.5509189004588464
40
7.5509189004588464
40
7.5509189004588464
40
7.5509189004588464
10
148.78055790490191
20
-22.52378399541719
30
0
10
152.00395739797835
20
-24.383028558712915
30
0
10
154.38756343391282
20
-26.595699437631659
30
0
10
159.47945914180701
20
-33.283306233246634
30
0
10
161.6974802904937
20
-38.198838010632642
30
0
10
166.23451880140351
20
-49.39796719963595
30
0
10
166.90815542896399
20
-55.988442747414666
30
0
10
166.90815542896399
20
-60.749600432419832
30
0
0
LINE
5
105
100
AcDbEntity
8
0
100
AcDbLine
10
166.90815542896399
20
-60.74960043241984
30
0
11
176.45004437035072
21
-64.222563985758342
31
0
0
LINE
5
106
100
AcDbEntity
8
0
100
AcDbLine
10
176.45004437035072
20
-64.222563985758342
30
0
11
187.77421517131572
21
1.7763568394002505e-14
31
0
0
LINE
5
107
100
AcDbEntity
8
0
100
AcDbLine
10
187.77421517131572
20
1.7763568394002505e-14
30
0
11
176.4500443703507
21
64.222563985758384
31
0
0
LINE
5
108
100
AcDbEntity
8
0
100
AcDbLine
10
176.52783056169372
20
64.357293621291774
30
0
11
166.80815542896394
21
60.819621186240809
31
0
0
SPLINE
5
109
100
AcDbEntity
8
0
100
AcDbSpline
70
0
71
3
72
20
73
16
74
0
42
0.000000001
43
0.0000000001
44
0.0000000001
40
-0.0070020753820942867
40
-0.0070020753820942867
40
-0.0070020753820942867
40
-0.0070020753820942867
40
0
40
0
40
0
40
1.450078574806511
40
1.450078574806511
40
1.450078574806511
40
2.292187316912484
40
2.292187316912484
40
2.292187316912484
40
2.6757085072009557
40
2.6757085072009557
40
2.6757085072009557
40
3.0703832107529294
40
3.0703832107529294
40
3.0703832107529294
40
3.0703832107529294
10
166.80815542896397
20
60.819621186240774
30
0
10
166.80815542896397
20
60.796280934967122
30
0
10
166.80815542896397
20
60.772940683693477
30
0
10
166.80815542896397
20
60.749600432419832
30
0
10
166.80815542896397
20
55.925543261811541
30
0
10
166.11860726323391
20
50.114930956826164
30
0
10
163.51401593848061
20
43.037382226690653
30
0
10
162.00144648777803
20
38.927223410863519
30
0
10
159.83065530868924
20
34.360401864862752
30
0
10
157.37763345142469
20
30.764540630725314
30
0
10
156.26047162954106
20
29.126903821386247
30
0
10
155.02533159609857
20
27.604759841100343
30
0
10
153.58720320852225
20
26.227989602218123
30
0
10
152.10724644821181
20
24.811175609788823
30
0
10
150.49773079908394
20
23.629685147436494
30
0
10
148.73059390601412
20
22.610407311072617
30
0
0
ARC
5
110
100
AcDbEntity
8
0
100
AcDbCircle
10
161.77221517131571
20
0
30
0
40
26.102000000003294
210
0
220
0
230
1
100
AcDbArc
50
119.97623102397631
51
240.02376879791731
0
SPLINE
5
111
100
AcDbEntity
8
0
100
AcDbSpline
70
0
71
3
72
17
73
13
74
0
42
0.000000001
43
0.0000000001
44
0.0000000001
40
0
40
0
40
0
40
0
40
1.1163505351948868
40
1.1163505351948868
40
1.1163505351948868
40
2.7660712496683861
40
2.7660712496683861
40
2.7660712496683861
40
7.5509189004588464
40
7.5509189004588464
40
7.5509189004588464
40
7.5743752852006017
40
7.5743752852006017
40
7.5743752852006017
40
7.5743752852006017
10
148.73059390601412
20
-22.610407311072617
30
0
10
151.94273056569685
20
-24.463155514919404
30
0
10
154.31462052861394
20
-26.664972442712337
30
0
10
156.36302379693228
20
-29.355309480866403
30
0
10
159.39012409565271
20
-33.331050087129356
30
0
10
161.60649444334393
20
-38.240575349169525
30
0
10
162.76802161290652
20
-41.107664265692875
30
0
10
166.13668119837092
20
-49.422791809943043
30
0
10
166.80815542896397
20
-55.997875140012269
30
0
10
166.80815542896397
20
-60.749600432419832
30
0
10
166.80815542896397
20
-60.772940683693491
30
0
10
166.80815542896397
20
-60.796280934967157
30
0
10
166.80815542896397
20
-60.819621186240823
30
0
0
LINE
5
112
100
AcDbEntity
8
0
100
AcDbLine
10
166.80815542896397
20
-60.819621186240809
30
0
11
176.52783056169375
21
-64.357293621291745
31
0
0
LINE
5
113
100
AcDbEntity
8
0
100
AcDbLine
10
176.52783056169375
20
-64.357293621291745
30
0
11
187.87575783250429
21
1.7763568394002505e-14
31
0
0
LINE
5
114
100
AcDbEntity
8
0
100
AcDbLine
10
187.87575783250429
20
1.7763568394002505e-14
30
0
11
176.52783056169372
21
64.357293621291774
31
0
0
CIRCLE
5
115
100
AcDbEntity
8
0
100
AcDbCircle
10
161.77221517131571
20
0
30
0
40
16.102000000000007
210
0
220
0
230
1
0
ENDSEC
0
SECTION
2
OBJECTS
0
DICTIONARY
5
C
100
AcDbDictionary
3
ACAD_GROUP
350
D
3
ACAD_MLINESTYLE
350
17
0
DICTIONARY
5
D
100
AcDbDictionary
0
DICTIONARY
5
1A
330
C
100
AcDbDictionary
0
DICTIONARY
5
17
100
AcDbDictionary
0
ENDSEC
0
EOF
