0
SECTION
2
HEADER
9
$INSUNITS
70
4
9
$ACADVER
1
AC1014
9
$HANDSEED
5
FFFF
0
ENDSEC
0
SECTION
2
TABLES
0
TABLE
2
VPORT
5
8
100
AcDbSymbolTable
0
ENDTAB
0
TABLE
2
LTYPE
5
5
100
AcDbSymbolTable
0
LTYPE
5
14
100
AcDbSymbolTableRecord
100
AcDbLinetypeTableRecord
2
BYBLOCK
70
0
0
LTYPE
5
15
100
AcDbSymbolTableRecord
100
AcDbLinetypeTableRecord
2
BYLAYER
70
0
0
ENDTAB
0
TABLE
2
LAYER
5
2
100
AcDbSymbolTable
70
2
0
LAYER
5
50
100
AcDbSymbolTableRecord
100
AcDbLayerTableRecord
2
0
70
0
6
CONTINUOUS
0
ENDTAB
0
TABLE
2
STYLE
5
3
100
AcDbSymbolTable
70
1
0
STYLE
5
11
100
AcDbSymbolTableRecord
100
AcDbTextStyleTableRecord
2
STANDARD
70
0
0
ENDTAB
0
TABLE
2
VIEW
5
6
100
AcDbSymbolTable
70
0
0
ENDTAB
0
TABLE
2
UCS
5
7
100
AcDbSymbolTable
70
0
0
ENDTAB
0
TABLE
2
APPID
5
9
100
AcDbSymbolTable
70
2
0
APPID
5
12
100
AcDbSymbolTableRecord
100
AcDbRegAppTableRecord
2
ACAD
70
0
0
ENDTAB
0
TABLE
2
DIMSTYLE
5
A
100
AcDbSymbolTable
70
1
0
ENDTAB
0
TABLE
2
BLOCK_RECORD
5
1
100
AcDbSymbolTable
70
1
0
BLOCK_RECORD
5
1F
100
AcDbSymbolTableRecord
100
AcDbBlockTableRecord
2
*MODEL_SPACE
0
BLOCK_RECORD
5
1B
100
AcDbSymbolTableRecord
100
AcDbBlockTableRecord
2
*PAPER_SPACE
0
ENDTAB
0
ENDSEC
0
SECTION
2
BLOCKS
0
BLOCK
5
20
100
AcDbEntity
100
AcDbBlockBegin
2
*MODEL_SPACE
0
ENDBLK
5
21
100
AcDbEntity
100
AcDbBlockEnd
0
BLOCK
5
1C
100
AcDbEntity
100
AcDbBlockBegin
2
*PAPER_SPACE
0
ENDBLK
5
1D
100
AcDbEntity
100
AcDbBlockEnd
0
ENDSEC
0
SECTION
2
ENTITIES
0
CIRCLE
5
100
100
AcDbEntity
8
0
100
AcDbCircle
10
0
20
-8.5000000000000178
30
0
40
1.25
210
0
220
0
230
1
0
CIRCLE
5
101
100
AcDbEntity
8
0
100
AcDbCircle
10
-9.3584758226092372e-16
20
8.4999999999999822
30
0
40
1.25
210
0
220
0
230
1
0
CIRCLE
5
102
100
AcDbEntity
8
0
100
AcDbCircle
10
0
20
0
30
0
40
4
210
0
220
0
230
1
0
LWPOLYLINE
5
103
100
AcDbEntity
8
0
100
AcDbPolyline
90
4
70
1
43
0.0
10
69.609095125124711
20
77.823000563952888
10
79.25090927042281
20
89.313667210737563
10
74.195015945837554
20
93.55606543466871
10
64.553201800539469
20
82.06539878788405
0
LWPOLYLINE
5
104
100
AcDbEntity
8
0
100
AcDbPolyline
90
4
70
1
43
0.0
10
103.3473210222796
20
14.872013260939339
10
118.11943731746271
20
17.476735925943284
10
116.97335934486098
20
23.97646709582386
10
102.20124304967786
20
21.371744430819916
0
LWPOLYLINE
5
105
100
AcDbEntity
8
0
100
AcDbPolyline
90
4
70
1
43
0.0
10
88.728186835576125
20
-55.037754330884219
10
101.7185678923427
20
-62.537754330884226
10
105.0185678923427
20
-56.821986665906934
10
92.028186835576122
20
-49.321986665906927
0
LWPOLYLINE
5
106
100
AcDbEntity
8
0
100
AcDbPolyline
90
4
70
1
43
0.0
10
32.592147924551554
20
-99.194744994781971
10
37.722450074436587
20
-113.29013430657058
10
43.924421371623581
20
-111.03280136062116
10
38.794119221738548
20
-96.937412048832542
0
LWPOLYLINE
5
107
100
AcDbEntity
8
0
100
AcDbPolyline
90
4
70
1
43
0.0
10
-38.794119221747266
20
-96.937412048829387
10
-43.924421371632299
20
-111.032801360618
10
-37.722450074445312
20
-113.29013430656742
10
-32.592147924560273
20
-99.194744994778802
0
LWPOLYLINE
5
108
100
AcDbEntity
8
0
100
AcDbPolyline
90
4
70
1
43
0.0
10
-92.028186835580797
20
-49.321986665898841
10
-105.01856789234739
20
-56.821986665898841
10
-101.71856789234739
20
-62.53775433087614
10
-88.7281868355808
20
-55.03775433087614
0
LWPOLYLINE
5
109
100
AcDbEntity
8
0
100
AcDbPolyline
90
4
70
1
43
0.0
10
-102.20124304967626
20
21.371744430829068
10
-116.97335934485938
20
23.976467095833023
10
-118.11943731746112
20
17.47673592595245
10
-103.34732102227801
20
14.872013260948494
0
LWPOLYLINE
5
110
100
AcDbEntity
8
0
100
AcDbPolyline
90
4
70
1
43
0.0
10
-64.553201800532335
20
82.065398787890004
10
-74.19501594583042
20
93.556065434674679
10
-79.250909270415676
20
89.313667210743532
10
-69.609095125117605
20
77.823000563958843
0
LWPOLYLINE
5
111
100
AcDbEntity
8
0
100
AcDbPolyline
90
18
70
1
43
0.0
10
120.65653250891063
20
-43.915386403015859
10
98.360106496476774
20
-82.53392908375163
10
64.200000000000003
20
-111.19766184592196
10
22.296426012433848
20
-126.44931548676755
10
-22.296426012433834
20
-126.44931548676752
10
-64.199999999999989
20
-111.19766184592193
10
-98.360106496476774
20
-82.533929083751644
10
-120.65653250891062
20
-43.915386403015887
10
-128.40000000000001
20
-1.7763568394002505e-14
10
-120.65653250891057
20
43.915386403015944
10
-98.360106496476746
20
82.533929083751687
10
-64.199999999999989
20
111.19766184592196
10
-22.296426012433876
20
126.44931548676752
10
22.296426012433894
20
126.44931548676752
10
64.199999999999989
20
111.19766184592193
10
98.360106496476817
20
82.533929083751616
10
120.65653250891062
20
43.915386403015887
10
128.40000000000003
20
8.8817841970012523e-15
0
LWPOLYLINE
5
112
100
AcDbEntity
8
0
100
AcDbPolyline
90
4
70
1
43
0.0
10
-3.2999999999953773
20
119.35974099678305
10
-3.2999999999953773
20
104.35974099678305
10
3.3000000000046232
20
104.35974099678305
10
3.3000000000046232
20
119.35974099678305
0
LWPOLYLINE
5
113
100
AcDbEntity
8
0
100
AcDbPolyline
90
4
70
1
43
0.0
10
-32.592147924551554
20
99.194744994781971
10
-37.722450074436594
20
113.29013430657058
10
-43.924421371623588
20
111.03280136062116
10
-38.794119221738555
20
96.937412048832542
0
LWPOLYLINE
5
114
100
AcDbEntity
8
0
100
AcDbPolyline
90
4
70
1
43
0.0
10
-88.728186835576139
20
55.037754330884184
10
-101.71856789234272
20
62.537754330884184
10
-105.01856789234273
20
56.821986665906891
10
-92.02818683557615
20
49.321986665906891
0
LWPOLYLINE
5
115
100
AcDbEntity
8
0
100
AcDbPolyline
90
4
70
1
43
0.0
10
-103.3473210222796
20
-14.872013260939376
10
-118.11943731746271
20
-17.476735925943331
10
-116.97335934486098
20
-23.976467095823907
10
-102.20124304967786
20
-21.371744430819952
0
LWPOLYLINE
5
116
100
AcDbEntity
8
0
100
AcDbPolyline
90
4
70
1
43
0.0
10
-69.609095125124696
20
-77.823000563952888
10
-79.250909270422795
20
-89.313667210737563
10
-74.19501594583754
20
-93.55606543466871
10
-64.553201800539441
20
-82.06539878788405
0
LWPOLYLINE
5
117
100
AcDbEntity
8
0
100
AcDbPolyline
90
4
70
1
43
0.0
10
-3.3000000000046361
20
-104.35974099678305
10
-3.3000000000046374
20
-119.35974099678305
10
3.2999999999953626
20
-119.35974099678305
10
3.2999999999953644
20
-104.35974099678305
0
LWPOLYLINE
5
118
100
AcDbEntity
8
0
100
AcDbPolyline
90
4
70
1
43
0.0
10
64.553201800532335
20
-82.065398787890004
10
74.19501594583042
20
-93.556065434674679
10
79.250909270415676
20
-89.313667210743532
10
69.609095125117605
20
-77.823000563958843
0
LWPOLYLINE
5
119
100
AcDbEntity
8
0
100
AcDbPolyline
90
4
70
1
43
0.0
10
102.20124304967626
20
-21.371744430829057
10
116.97335934485938
20
-23.976467095833016
10
118.11943731746112
20
-17.47673592595244
10
103.34732102227801
20
-14.872013260948485
0
LWPOLYLINE
5
120
100
AcDbEntity
8
0
100
AcDbPolyline
90
4
70
1
43
0.0
10
92.028186835580797
20
49.321986665898876
10
105.01856789234738
20
56.821986665898876
10
101.71856789234738
20
62.537754330876176
10
88.7281868355808
20
55.037754330876176
0
LWPOLYLINE
5
121
100
AcDbEntity
8
0
100
AcDbPolyline
90
4
70
1
43
0.0
10
38.794119221747316
20
96.937412048829373
10
43.924421371632356
20
111.03280136061798
10
37.722450074445362
20
113.29013430656741
10
32.592147924560322
20
99.194744994778787
0
LWPOLYLINE
5
122
100
AcDbEntity
8
0
100
AcDbPolyline
90
18
70
1
43
0.0
10
-22.314058710504696
20
-126.54931548676751
10
-64.250771330594262
20
-111.28560037007912
10
-98.437892687819783
20
-82.599199448218286
10
-120.75195139832451
20
-43.950116038549247
10
-128.50154266118861
20
-1.7763568394002505e-14
10
-120.75195139832444
20
43.950116038549318
10
-98.437892687819755
20
82.599199448218315
10
-64.25077133059429
20
111.28560037007914
10
-22.314058710504739
20
126.54931548676751
10
22.314058710504749
20
126.54931548676751
10
64.250771330594262
20
111.28560037007912
10
98.437892687819826
20
82.599199448218229
10
120.75195139832451
20
43.95011603854924
10
128.50154266118861
20
1.7763568394002505e-14
10
120.75195139832451
20
-43.950116038549226
10
98.437892687819783
20
-82.599199448218243
10
64.250771330594304
20
-111.28560037007914
10
22.314058710504703
20
-126.54931548676755
0
LWPOLYLINE
5
123
100
AcDbEntity
8
0
100
AcDbPolyline
90
4
70
1
43
0.0
10
-104.8819653519643
20
56.858589206285338
10
-92.064789375954575
20
49.458589206285325
10
-88.864789375954587
20
55.001151790505745
10
-101.68196535196429
20
62.401151790505736
0
LWPOLYLINE
5
124
100
AcDbEntity
8
0
100
AcDbPolyline
90
4
70
1
43
0.0
10
-79.110026065135116
20
89.301341527400268
10
-69.596769441774356
20
77.963883769239402
10
-64.694085005812894
20
82.077724471233253
10
-74.207341629173669
20
93.415182229394134
0
LWPOLYLINE
5
125
100
AcDbEntity
8
0
100
AcDbPolyline
90
4
70
1
43
0.0
10
-43.796250095212429
20
110.97303411287513
10
-38.734351973992538
20
97.065583325243693
10
-32.72031920096272
20
99.254512242527994
10
-37.782217322182618
20
113.16196303015943
0
LWPOLYLINE
5
126
100
AcDbEntity
8
0
100
AcDbPolyline
90
4
70
1
43
0.0
10
-3.1999999999953772
20
119.25974099678305
10
-3.1999999999953772
20
104.45974099678304
10
3.2000000000046231
20
104.45974099678304
10
3.2000000000046231
20
119.25974099678305
0
LWPOLYLINE
5
127
100
AcDbEntity
8
0
100
AcDbPolyline
90
4
70
1
43
0.0
10
37.782217322191386
20
113.16196303015624
10
32.720319200971481
20
99.254512242524825
10
38.734351974001292
20
97.065583325240539
10
43.79625009522119
20
110.97303411287197
0
LWPOLYLINE
5
128
100
AcDbEntity
8
0
100
AcDbPolyline
90
4
70
1
43
0.0
10
74.207341629180803
20
93.415182229388165
10
64.694085005820028
20
82.077724471227299
10
69.596769441781476
20
77.963883769233448
10
79.110026065142264
20
89.3013415273943
0
LWPOLYLINE
5
129
100
AcDbEntity
8
0
100
AcDbPolyline
90
4
70
1
43
0.0
10
101.68196535196896
20
62.401151790497735
10
88.864789375959248
20
55.00115179049773
10
92.064789375959251
20
49.458589206277324
10
104.88196535196893
20
56.858589206277315
0
LWPOLYLINE
5
130
100
AcDbEntity
8
0
100
AcDbPolyline
90
4
70
1
43
0.0
10
116.89224338732645
20
23.860621502755947
10
102.31708864274579
20
21.290628473285388
10
103.42843697981414
20
14.987858854007253
10
118.00359172439479
20
17.557851883477813
0
LWPOLYLINE
5
131
100
AcDbEntity
8
0
100
AcDbPolyline
90
4
70
1
43
0.0
10
118.0035917243932
20
-17.557851883486968
10
103.42843697981253
20
-14.9878588540164
10
102.31708864274418
20
-21.290628473294532
10
116.89224338732485
20
-23.860621502765099
0
LWPOLYLINE
5
132
100
AcDbEntity
8
0
100
AcDbPolyline
90
4
70
1
43
0.0
10
104.88196535196425
20
-56.858589206285373
10
92.064789375954561
20
-49.458589206285367
10
88.864789375954572
20
-55.00115179050578
10
101.68196535196428
20
-62.401151790505779
0
LWPOLYLINE
5
133
100
AcDbEntity
8
0
100
AcDbPolyline
90
4
70
1
43
0.0
10
79.110026065135116
20
-89.301341527400268
10
69.596769441774356
20
-77.963883769239402
10
64.694085005812894
20
-82.077724471233253
10
74.207341629173669
20
-93.415182229394134
0
LWPOLYLINE
5
134
100
AcDbEntity
8
0
100
AcDbPolyline
90
4
70
1
43
0.0
10
43.796250095212422
20
-110.97303411287513
10
38.734351973992524
20
-97.065583325243693
10
32.720319200962713
20
-99.254512242527994
10
37.782217322182611
20
-113.16196303015943
0
LWPOLYLINE
5
135
100
AcDbEntity
8
0
100
AcDbPolyline
90
4
70
1
43
0.0
10
3.1999999999953626
20
-119.25974099678305
10
3.1999999999953643
20
-104.45974099678304
10
-3.2000000000046356
20
-104.45974099678304
10
-3.2000000000046374
20
-119.25974099678305
0
LWPOLYLINE
5
136
100
AcDbEntity
8
0
100
AcDbPolyline
90
4
70
1
43
0.0
10
-38.734351974001243
20
-97.065583325240539
10
-43.79625009522114
20
-110.97303411287197
10
-37.782217322191329
20
-113.16196303015627
10
-32.720319200971424
20
-99.254512242524839
0
LWPOLYLINE
5
137
100
AcDbEntity
8
0
100
AcDbPolyline
90
4
70
1
43
0.0
10
-69.596769441781461
20
-77.963883769233448
10
-79.110026065142236
20
-89.3013415273943
10
-74.207341629180789
20
-93.415182229388165
10
-64.69408500582
20
-82.077724471227299
0
LWPOLYLINE
5
138
100
AcDbEntity
8
0
100
AcDbPolyline
90
4
70
1
43
0.0
10
-101.68196535196896
20
-62.401151790497693
10
-88.864789375959248
20
-55.001151790497701
10
-92.064789375959251
20
-49.458589206277288
10
-104.88196535196894
20
-56.858589206277294
0
LWPOLYLINE
5
139
100
AcDbEntity
8
0
100
AcDbPolyline
90
4
70
1
43
0.0
10
-116.89224338732645
20
-23.86062150275599
10
-102.31708864274579
20
-21.290628473285423
10
-103.42843697981414
20
-14.987858854007293
10
-118.00359172439479
20
-17.557851883477859
0
LWPOLYLINE
5
140
100
AcDbEntity
8
0
100
AcDbPolyline
90
4
70
1
43
0.0
10
-118.0035917243932
20
17.557851883486975
10
-103.42843697981253
20
14.987858854016409
10
-102.31708864274418
20
21.290628473294539
10
-116.89224338732485
20
23.860621502765106
0
ENDSEC
0
SECTION
2
OBJECTS
0
DICTIONARY
5
C
100
AcDbDictionary
3
ACAD_GROUP
350
D
3
ACAD_MLINESTYLE
350
17
0
DICTIONARY
5
D
100
AcDbDictionary
0
DICTIONARY
5
1A
330
C
100
AcDbDictionary
0
DICTIONARY
5
17
100
AcDbDictionary
0
ENDSEC
0
EOF
