0
SECTION
2
HEADER
9
$INSUNITS
70
4
9
$ACADVER
1
AC1014
9
$HANDSEED
5
FFFF
0
ENDSEC
0
SECTION
2
TABLES
0
TABLE
2
VPORT
5
8
100
AcDbSymbolTable
0
ENDTAB
0
TABLE
2
LTYPE
5
5
100
AcDbSymbolTable
0
LTYPE
5
14
100
AcDbSymbolTableRecord
100
AcDbLinetypeTableRecord
2
BYBLOCK
70
0
0
LTYPE
5
15
100
AcDbSymbolTableRecord
100
AcDbLinetypeTableRecord
2
BYLAYER
70
0
0
ENDTAB
0
TABLE
2
LAYER
5
2
100
AcDbSymbolTable
70
2
0
LAYER
5
50
100
AcDbSymbolTableRecord
100
AcDbLayerTableRecord
2
0
70
0
6
CONTINUOUS
0
ENDTAB
0
TABLE
2
STYLE
5
3
100
AcDbSymbolTable
70
1
0
STYLE
5
11
100
AcDbSymbolTableRecord
100
AcDbTextStyleTableRecord
2
STANDARD
70
0
0
ENDTAB
0
TABLE
2
VIEW
5
6
100
AcDbSymbolTable
70
0
0
ENDTAB
0
TABLE
2
UCS
5
7
100
AcDbSymbolTable
70
0
0
ENDTAB
0
TABLE
2
APPID
5
9
100
AcDbSymbolTable
70
2
0
APPID
5
12
100
AcDbSymbolTableRecord
100
AcDbRegAppTableRecord
2
ACAD
70
0
0
ENDTAB
0
TABLE
2
DIMSTYLE
5
A
100
AcDbSymbolTable
70
1
0
ENDTAB
0
TABLE
2
BLOCK_RECORD
5
1
100
AcDbSymbolTable
70
1
0
BLOCK_RECORD
5
1F
100
AcDbSymbolTableRecord
100
AcDbBlockTableRecord
2
*MODEL_SPACE
0
BLOCK_RECORD
5
1B
100
AcDbSymbolTableRecord
100
AcDbBlockTableRecord
2
*PAPER_SPACE
0
ENDTAB
0
ENDSEC
0
SECTION
2
BLOCKS
0
BLOCK
5
20
100
AcDbEntity
100
AcDbBlockBegin
2
*MODEL_SPACE
0
ENDBLK
5
21
100
AcDbEntity
100
AcDbBlockEnd
0
BLOCK
5
1C
100
AcDbEntity
100
AcDbBlockBegin
2
*PAPER_SPACE
0
ENDBLK
5
1D
100
AcDbEntity
100
AcDbBlockEnd
0
ENDSEC
0
SECTION
2
ENTITIES
0
CIRCLE
5
100
100
AcDbEntity
8
0
100
AcDbCircle
10
161.77221517131571
20
0
30
0
40
16.002000000000006
210
0
220
0
230
1
0
LINE
5
101
100
AcDbEntity
8
0
100
AcDbLine
10
166.90815542896399
20
-60.749600432419832
30
0
11
136.06477495871158
21
-114.17190248407456
31
0
0
LINE
5
102
100
AcDbEntity
8
0
100
AcDbLine
10
136.06477495871158
20
-114.17190248407456
30
0
11
87.45923148879244
21
-154.95679608285491
31
0
0
LINE
5
103
100
AcDbEntity
8
0
100
AcDbLine
10
87.45923148879244
20
-154.95679608285491
30
0
11
93.887107585657844
21
-162.61724051404471
31
0
0
LINE
5
104
100
AcDbEntity
8
0
100
AcDbLine
10
93.887107585657844
20
-162.61724051404471
30
0
11
143.84339409301367
21
-120.69893893073592
31
0
0
LINE
5
105
100
AcDbEntity
8
0
100
AcDbLine
10
143.84339409301367
20
-120.69893893073592
30
0
11
176.4500443703507
21
-64.222563985758413
31
0
0
LINE
5
106
100
AcDbEntity
8
0
100
AcDbLine
10
176.4500443703507
20
-64.222563985758413
30
0
11
187.77421517131572
21
0
31
0
0
LINE
5
107
100
AcDbEntity
8
0
100
AcDbLine
10
187.77421517131572
20
0
30
0
11
176.45004437035072
21
64.222563985758327
31
0
0
LINE
5
108
100
AcDbEntity
8
0
100
AcDbLine
10
176.45004437035072
20
64.222563985758327
30
0
11
143.84339409301367
21
120.69893893073598
31
0
0
LINE
5
109
100
AcDbEntity
8
0
100
AcDbLine
10
143.84339409301367
20
120.69893893073598
30
0
11
93.887107585657873
21
162.61724051404471
31
0
0
LINE
5
110
100
AcDbEntity
8
0
100
AcDbLine
10
93.887107585657873
20
162.61724051404471
30
0
11
87.459231488792483
21
154.95679608285499
31
0
0
LINE
5
111
100
AcDbEntity
8
0
100
AcDbLine
10
87.459231488792483
20
154.95679608285499
30
0
11
136.06477495871169
21
114.17190248407444
31
0
0
LINE
5
112
100
AcDbEntity
8
0
100
AcDbLine
10
136.06477495871169
20
114.17190248407444
30
0
11
166.90815542896399
21
60.749600432419726
31
0
0
SPLINE
5
113
100
AcDbEntity
8
0
100
AcDbSpline
70
4
71
5
72
21
73
15
74
0
42
0.000000001
43
0.0000000001
44
0.0000000001
40
0
40
0
40
0
40
0
40
0
40
0
40
0.10000000000000001
40
0.20000000000000001
40
0.30000000000000004
40
0.40000000000000002
40
0.5
40
0.59999999999999998
40
0.69999999999999996
40
0.79999999999999993
40
0.89999999999999991
40
1
40
1
40
1
40
1
40
1
40
1
41
1
41
1
41
1
41
1
41
1
41
1
41
1
41
1
41
1
41
1
41
1
41
1
41
1
41
1
41
1
10
148.78055790490191
20
22.52378399541719
30
0
10
149.46642935467185
20
22.919392038057737
30
0
10
150.78396699319828
20
23.742699865236055
30
0
10
152.59768444889286
20
25.073942478967702
30
0
10
154.71679484795635
20
27.046432705995301
30
0
10
156.99937325720157
20
29.871612831766967
30
0
10
159.05826894720659
20
33.092923897136345
30
0
10
161.00132836031676
20
36.740794447675526
30
0
10
162.84180333350236
20
40.812914041407993
30
0
10
164.50085684216322
20
45.278033759946474
30
0
10
165.85123683595697
20
50.09835616586291
30
0
10
166.5684882732001
20
54.210989942739872
30
0
10
166.84639639211966
20
57.429229343675033
30
0
10
166.90815542896399
20
59.633082708010733
30
0
10
166.90815542896399
20
60.749600432419832
30
0
0
ARC
5
114
100
AcDbEntity
8
0
100
AcDbCircle
10
161.77221517131571
20
0
30
0
40
26.002000000003342
210
0
220
0
230
1
100
AcDbArc
50
119.97623120208266
51
240.02376879791731
0
SPLINE
5
115
100
AcDbEntity
8
0
100
AcDbSpline
70
4
71
5
72
21
73
15
74
0
42
0.000000001
43
0.0000000001
44
0.0000000001
40
0
40
0
40
0
40
0
40
0
40
0
40
0.10000000000000001
40
0.20000000000000001
40
0.30000000000000004
40
0.40000000000000002
40
0.5
40
0.59999999999999998
40
0.69999999999999996
40
0.79999999999999993
40
0.89999999999999991
40
1
40
1
40
1
40
1
40
1
40
1
41
1
41
1
41
1
41
1
41
1
41
1
41
1
41
1
41
1
41
1
41
1
41
1
41
1
41
1
41
1
10
148.78055790490191
20
-22.52378399541719
30
0
10
149.46642935467185
20
-22.919392038057737
30
0
10
150.78396699319828
20
-23.742699865236055
30
0
10
152.59768444889286
20
-25.073942478967702
30
0
10
154.71679484795635
20
-27.046432705995301
30
0
10
156.99937325720157
20
-29.871612831766967
30
0
10
159.05826894720659
20
-33.092923897136345
30
0
10
161.00132836031676
20
-36.740794447675526
30
0
10
162.84180333350236
20
-40.812914041407993
30
0
10
164.50085684216322
20
-45.278033759946474
30
0
10
165.85123683595697
20
-50.09835616586291
30
0
10
166.5684882732001
20
-54.210989942739872
30
0
10
166.84639639211966
20
-57.429229343675033
30
0
10
166.90815542896399
20
-59.633082708010733
30
0
10
166.90815542896399
20
-60.749600432419832
30
0
0
LINE
5
116
100
AcDbEntity
8
0
100
AcDbLine
10
93.874781902314623
20
162.75812371932523
30
0
11
87.318348283511938
21
154.94447039951177
31
0
0
LINE
5
117
100
AcDbEntity
8
0
100
AcDbLine
10
87.318348283511938
20
154.94447039951177
30
0
11
135.98698876736864
21
114.10663211960787
31
0
0
LINE
5
118
100
AcDbEntity
8
0
100
AcDbLine
10
135.98698876736864
20
114.10663211960787
30
0
11
166.80814830577054
21
60.72281785090955
31
0
0
SPLINE
5
119
100
AcDbEntity
8
0
100
AcDbSpline
70
0
71
3
72
17
73
13
74
0
42
0.000000001
43
0.0000000001
44
0.0000000001
40
0
40
0
40
0
40
0
40
0.31057756314886653
40
0.31057756314886653
40
0.31057756314886653
40
0.55843074846955576
40
0.55843074846955576
40
0.55843074846955576
40
0.91999313657345783
40
0.91999313657345783
40
0.91999313657345783
40
0.9995192346198023
40
0.9995192346198023
40
0.9995192346198023
40
0.9995192346198023
10
148.73059390601412
20
22.610407311072617
30
0
10
152.26843344088448
20
24.651019694101368
30
0
10
154.86360518711524
20
27.183401664174234
30
0
10
157.09082052737128
20
30.350417033860669
30
0
10
158.86822650248664
20
32.877820621479515
30
0
10
160.47106393909931
20
35.830362635712703
30
0
10
161.96557898069176
20
39.212553699103005
30
0
10
164.14574231729048
20
44.146414348587257
30
0
10
166.0296616217245
20
49.95430009559287
30
0
10
166.6127902768564
20
56.385847161737523
30
0
10
166.74105015157636
20
57.800473957555994
30
0
10
166.80736278101745
20
59.246251074021394
30
0
10
166.80814830577054
20
60.722817850909564
30
0
0
ARC
5
120
100
AcDbEntity
8
0
100
AcDbCircle
10
161.77221517131571
20
0
30
0
40
26.102000000003308
210
0
220
0
230
1
100
AcDbArc
50
119.97623102397637
51
240.02376879791731
0
SPLINE
5
121
100
AcDbEntity
8
0
100
AcDbSpline
70
0
71
3
72
17
73
13
74
0
42
0.000000001
43
0.0000000001
44
0.0000000001
40
0
40
0
40
0
40
0
40
0.31057756314886653
40
0.31057756314886653
40
0.31057756314886653
40
0.55843074846955576
40
0.55843074846955576
40
0.55843074846955576
40
0.91999313657345783
40
0.91999313657345783
40
0.91999313657345783
40
0.99951923461980396
40
0.99951923461980396
40
0.99951923461980396
40
0.99951923461980396
10
148.73059390601412
20
-22.610407311072617
30
0
10
152.26843344088448
20
-24.651019694101368
30
0
10
154.86360518711524
20
-27.183401664174234
30
0
10
157.09082052737128
20
-30.350417033860669
30
0
10
158.86822650248664
20
-32.877820621479515
30
0
10
160.47106393909931
20
-35.830362635712703
30
0
10
161.96557898069176
20
-39.212553699103005
30
0
10
164.14574231729048
20
-44.146414348587257
30
0
10
166.0296616217245
20
-49.95430009559287
30
0
10
166.6127902768564
20
-56.385847161737523
30
0
10
166.74105015157636
20
-57.800473957556022
30
0
10
166.80736278101739
20
-59.246251074021458
30
0
10
166.8081483057706
20
-60.722817850909642
30
0
0
LINE
5
122
100
AcDbEntity
8
0
100
AcDbLine
10
166.8081483057706
20
-60.722817850909642
30
0
11
135.98698876736853
21
-114.10663211960795
31
0
0
LINE
5
123
100
AcDbEntity
8
0
100
AcDbLine
10
135.98698876736853
20
-114.10663211960795
30
0
11
87.318348283511895
21
-154.94447039951169
31
0
0
LINE
5
124
100
AcDbEntity
8
0
100
AcDbLine
10
87.318348283511895
20
-154.94447039951169
30
0
11
93.874781902314595
21
-162.75812371932523
31
0
0
LINE
5
125
100
AcDbEntity
8
0
100
AcDbLine
10
93.874781902314595
20
-162.75812371932523
30
0
11
143.92118028435675
21
-120.76420929520248
31
0
0
LINE
5
126
100
AcDbEntity
8
0
100
AcDbLine
10
143.92118028435675
20
-120.76420929520248
30
0
11
176.54546325976457
21
-64.257293621291794
31
0
0
LINE
5
127
100
AcDbEntity
8
0
100
AcDbLine
10
176.54546325976457
20
-64.257293621291794
30
0
11
187.87575783250429
21
0
31
0
0
LINE
5
128
100
AcDbEntity
8
0
100
AcDbLine
10
187.87575783250429
20
0
30
0
11
176.54546325976463
21
64.257293621291723
31
0
0
LINE
5
129
100
AcDbEntity
8
0
100
AcDbLine
10
176.54546325976463
20
64.257293621291723
30
0
11
143.92118028435672
21
120.76420929520256
31
0
0
LINE
5
130
100
AcDbEntity
8
0
100
AcDbLine
10
143.92118028435672
20
120.76420929520256
30
0
11
93.874781902314623
21
162.75812371932523
31
0
0
CIRCLE
5
131
100
AcDbEntity
8
0
100
AcDbCircle
10
161.77221517131571
20
0
30
0
40
16.102000000000007
210
0
220
0
230
1
0
ENDSEC
0
SECTION
2
OBJECTS
0
DICTIONARY
5
C
100
AcDbDictionary
3
ACAD_GROUP
350
D
3
ACAD_MLINESTYLE
350
17
0
DICTIONARY
5
D
100
AcDbDictionary
0
DICTIONARY
5
1A
330
C
100
AcDbDictionary
0
DICTIONARY
5
17
100
AcDbDictionary
0
ENDSEC
0
EOF
